<?xml version="1.0" standalone="no"?>
<!-- Created using Krita: https://krita.org -->
<svg xmlns="http://www.w3.org/2000/svg" 
    width="184.32pt"
    height="184.32pt"
    viewBox="0 0 184.32 184.32">
<defs/>
<path id="shape0" transform="matrix(0.999999960263572 0 0 0.999999960263572 8.16985913481842 6.5757402792441)" fill-rule="evenodd" stroke-opacity="0" stroke-width="0" stroke-linecap="square" stroke-linejoin="bevel" d="M0 102.024L0.40255 104.209L37.9101 141.744L119.957 51.0118L115.972 44.8346L114.179 38.0596L115.574 31.4838L119.559 25.3066L125.338 21.5206L132.113 19.7272L139.087 21.3213L144.866 25.3066L148.851 31.0853L150.644 38.2589C149.586 40.7279 149.51 43.1626 148.452 45.6317C147.717 47.3472 145.999 49.097 145.264 50.8125L140.482 54.2L132.71 55.7942L125.935 54.3993L119.956 51.0018L37.9214 141.744C47.4664 151.262 57.106 160.757 66.651 170.275C67.3495 170.971 68.2472 170.671 68.9456 171.368L70.7302 170.361L167.993 72.1464L169.973 69.5434L170.56 65.7569L170.38 2.98838L169.375 0.597795L167.183 0L104.813 0L101.027 0.797059L97.936 2.88643L0.5001 100.133Z"/>
</svg>
